<svg width="91" height="74" viewBox="0 0 91 74" fill="none" xmlns="http://www.w3.org/2000/svg">
<path d="M72.7325 27.2958H63.2255C63.2255 9.72895 46.2197 9.52739 45.4953 9.52739C27.9661 9.52739 27.765 26.5698 27.765 27.2958H18.2581C18.2581 9.72895 1.25222 9.52739 0.527832 9.52739V0C7.81746 0 17.4716 3.22168 23.1129 11.2841C27.3055 4.97673 34.4594 0 45.4953 0C52.7849 0 62.439 3.22168 68.0804 11.2841C72.273 4.97836 79.4269 0 90.4627 0V9.52739C72.9336 9.52739 72.7325 26.5698 72.7325 27.2958Z" fill="#0047CC"/>
<path d="M22.2722 57.7402V48.9453C22.2722 46.2612 21.0219 43.1201 17.3525 43.1201C15.3412 43.1201 13.9278 44.0624 13.0308 45.5473C12.2698 44.0053 10.9108 43.1201 8.95377 43.1201C6.91524 43.1201 5.52904 44.2909 4.90389 45.4902H4.84952V43.5199H0.527832V57.7402H5.01261V50.0304C5.01261 48.3171 5.82802 46.975 7.24141 46.975C8.57325 46.975 9.17122 48.003 9.17122 49.6306V57.7402H13.6288V50.0589C13.6288 48.4599 14.3627 46.975 15.8848 46.975C17.4613 46.975 17.8146 48.3457 17.8146 49.9733V57.7402H22.2722Z" fill="#0047CC"/>
<path d="M34.7434 49.9447L39.962 43.5199H34.5531L30.2314 49.288H30.1499V36.1527H25.6651V57.7402H30.1499V50.9156H30.2314L34.6618 57.7402H40.1794L34.7434 49.9447Z" fill="#0047CC"/>
<path d="M55.4374 50.5729C55.4374 45.9185 52.0127 43.063 47.9085 43.063C43.8314 43.063 40.4067 45.9185 40.4067 50.5729C40.4067 55.2274 43.8314 58.1971 47.9085 58.1971C52.0127 58.1971 55.4374 55.2274 55.4374 50.5729ZM51.1429 50.5729C51.1429 52.4005 50.0285 54.2565 47.9356 54.2565C45.8427 54.2565 44.7283 52.4005 44.7283 50.5729C44.7283 48.7454 45.8156 46.9465 47.9085 46.9465C50.0014 46.9465 51.1429 48.7454 51.1429 50.5729Z" fill="#0047CC"/>
<path d="M73.3449 50.5729C73.3449 46.6038 70.8987 43.1201 66.9575 43.1201C64.9733 43.1201 63.5871 44.091 62.8261 45.0333H62.7717V36.1527H58.3141V57.7402H62.4184V55.8841H62.4727C63.3425 57.3119 65.1092 58.14 66.9031 58.14C70.9802 58.14 73.3449 54.5421 73.3449 50.5729ZM69.0504 50.5729C69.0504 52.429 67.9632 54.2565 65.8431 54.2565C63.8317 54.2565 62.5814 52.4576 62.5814 50.6015C62.5814 48.8025 63.8317 46.9465 65.8431 46.9465C67.9632 46.9465 69.0504 48.7454 69.0504 50.5729Z" fill="#0047CC"/>
<path d="M90.5278 50.5729C90.5278 45.9185 87.1031 43.063 82.9988 43.063C78.9218 43.063 75.497 45.9185 75.497 50.5729C75.497 55.2274 78.9218 58.1971 82.9988 58.1971C87.1031 58.1971 90.5278 55.2274 90.5278 50.5729ZM86.2333 50.5729C86.2333 52.4005 85.1189 54.2565 83.026 54.2565C80.9331 54.2565 79.8187 52.4005 79.8187 50.5729C79.8187 48.7454 80.9059 46.9465 82.9988 46.9465C85.0917 46.9465 86.2333 48.7454 86.2333 50.5729Z" fill="#0047CC"/>
<path d="M1.63289 73.1091H0.527832V66.124H1.13852L4.14352 70.4058L7.12912 66.124H7.7592V73.1091H6.63475V68.6382L4.29861 71.9654H3.96903L1.63289 68.6382V73.1091Z" fill="#0047CC"/>
<path d="M9.86103 67.3433C9.65424 67.3433 9.47975 67.2771 9.33758 67.1448C9.19541 67.0062 9.12432 66.836 9.12432 66.6344C9.12432 66.439 9.19541 66.2752 9.33758 66.1429C9.47975 66.0105 9.65424 65.9444 9.86103 65.9444C10.0614 65.9444 10.2294 66.0105 10.3651 66.1429C10.5008 66.2752 10.5687 66.439 10.5687 66.6344C10.5687 66.836 10.5008 67.0062 10.3651 67.1448C10.2294 67.2771 10.0614 67.3433 9.86103 67.3433ZM10.3748 68.0144V73.1091H9.3085V68.0144H10.3748Z" fill="#0047CC"/>
<path d="M14.2031 73.2225C13.3888 73.2225 12.7264 72.9736 12.2159 72.4758C11.6989 71.9717 11.4404 71.3352 11.4404 70.5665C11.4404 69.7914 11.7021 69.1518 12.2256 68.6477C12.7555 68.1436 13.4276 67.8915 14.2418 67.8915C14.7653 67.8915 15.2435 68.0144 15.6765 68.2601C16.1159 68.5059 16.439 68.8367 16.6458 69.2526L15.7637 69.7347C15.6021 69.4637 15.3857 69.2495 15.1142 69.0919C14.8493 68.9281 14.5617 68.8462 14.2515 68.8462C13.7539 68.8462 13.3403 69.01 13.0107 69.3377C12.6812 69.6717 12.5164 70.0813 12.5164 70.5665C12.5164 71.0391 12.6779 71.4424 13.0011 71.7763C13.3177 72.104 13.7216 72.2678 14.2127 72.2678C14.5229 72.2678 14.8202 72.1859 15.1045 72.0221C15.3889 71.8583 15.5989 71.6503 15.7346 71.3983L16.6167 71.8992C16.4035 72.2962 16.0771 72.6176 15.6377 72.8633C15.2047 73.1028 14.7265 73.2225 14.2031 73.2225Z" fill="#0047CC"/>
<path d="M18.6292 73.1091H17.5629V68.0144H18.5807V68.7422C18.8909 68.1688 19.3853 67.8821 20.0639 67.8821C20.2836 67.8821 20.4904 67.9104 20.6842 67.9671L20.5873 68.9785C20.4128 68.9155 20.2222 68.884 20.0154 68.884C19.5953 68.884 19.2593 69.0226 19.0073 69.2999C18.7552 69.5771 18.6292 69.9773 18.6292 70.5003V73.1091Z" fill="#0047CC"/>
<path d="M20.8973 70.557C20.8973 69.8197 21.1558 69.1896 21.6727 68.6666C22.1962 68.1436 22.8586 67.8821 23.6599 67.8821C24.4613 67.8821 25.1204 68.1436 25.6374 68.6666C26.1609 69.1833 26.4226 69.8134 26.4226 70.557C26.4226 71.3132 26.1609 71.9496 25.6374 72.4663C25.1269 72.9831 24.4677 73.2414 23.6599 73.2414C22.8586 73.2414 22.1962 72.9831 21.6727 72.4663C21.1558 71.9433 20.8973 71.3069 20.8973 70.557ZM25.3466 70.557C25.3466 70.0907 25.1818 69.6906 24.8522 69.3566C24.5356 69.0163 24.1381 68.8462 23.6599 68.8462C23.1882 68.8462 22.7875 69.0163 22.4579 69.3566C22.1348 69.6906 21.9732 70.0907 21.9732 70.557C21.9732 71.0296 22.1348 71.4329 22.4579 71.7669C22.7875 72.1009 23.1882 72.2678 23.6599 72.2678C24.1317 72.2678 24.5291 72.1009 24.8522 71.7669C25.1818 71.4329 25.3466 71.0296 25.3466 70.557Z" fill="#0047CC"/>
<path d="M27.8159 68.0144V67.7592C27.8159 67.1416 27.9807 66.6596 28.3103 66.313C28.6464 65.9664 29.0955 65.7931 29.6577 65.7931C30.1101 65.7931 30.5269 65.894 30.9082 66.0956L30.5786 66.9274C30.2684 66.8014 30.0099 66.7383 29.8031 66.7383C29.5058 66.7383 29.2764 66.8234 29.1149 66.9936C28.9598 67.1637 28.8822 67.4126 28.8822 67.7403V68.0144H30.5398V68.9029H28.8822V73.1091H27.8159V68.9029H26.9435V68.0144H27.8159ZM31.2087 66.6344C31.2087 66.439 31.2765 66.2752 31.4122 66.1429C31.5544 66.0042 31.7289 65.9349 31.9357 65.9349C32.1425 65.9349 32.3137 66.0042 32.4494 66.1429C32.5852 66.2752 32.653 66.439 32.653 66.6344C32.653 66.836 32.5852 67.0062 32.4494 67.1448C32.3137 67.2771 32.1425 67.3433 31.9357 67.3433C31.7289 67.3433 31.5544 67.2771 31.4122 67.1448C31.2765 67.0062 31.2087 66.836 31.2087 66.6344ZM32.4591 73.1091H31.3929V68.0144H32.4591V73.1091Z" fill="#0047CC"/>
<path d="M34.9018 73.1091H33.8355V68.0144H34.8825V68.7327C35.0375 68.4681 35.2605 68.2601 35.5513 68.1089C35.8421 67.9577 36.1717 67.8821 36.54 67.8821C37.1152 67.8821 37.5999 68.0648 37.9941 68.4303C38.3947 68.8021 38.5951 69.3282 38.5951 70.0088V73.1091H37.5191V70.3018C37.5191 69.8418 37.406 69.4858 37.1798 69.2337C36.9536 68.9754 36.6499 68.8462 36.2686 68.8462C35.868 68.8462 35.5384 68.9848 35.2799 69.2621C35.0279 69.533 34.9018 69.8859 34.9018 70.3207V73.1091Z" fill="#0047CC"/>
<path d="M43.9844 68.7233V68.0144H45.012V73.1091H43.9844V72.4096C43.5127 72.9579 42.9182 73.232 42.2008 73.232C41.4447 73.232 40.8211 72.9736 40.33 72.4569C39.8388 71.9402 39.5933 71.2974 39.5933 70.5286C39.5933 69.7662 39.8388 69.136 40.33 68.6382C40.8211 68.1404 41.4447 67.8915 42.2008 67.8915C42.9182 67.8915 43.5127 68.1688 43.9844 68.7233ZM42.3462 72.2773C42.8309 72.2773 43.2348 72.1103 43.5579 71.7763C43.8746 71.4487 44.0329 71.0422 44.0329 70.557C44.0329 70.0781 43.8746 69.6748 43.5579 69.3471C43.2348 69.0132 42.8309 68.8462 42.3462 68.8462C41.8486 68.8462 41.4447 69.0132 41.1345 69.3471C40.8244 69.6748 40.6693 70.0813 40.6693 70.5665C40.6693 71.0517 40.8244 71.4581 41.1345 71.7858C41.4447 72.1135 41.8486 72.2773 42.3462 72.2773Z" fill="#0047CC"/>
<path d="M47.4542 73.1091H46.3879V68.0144H47.4348V68.7327C47.5899 68.4681 47.8129 68.2601 48.1037 68.1089C48.3945 67.9577 48.7241 67.8821 49.0924 67.8821C49.6676 67.8821 50.1522 68.0648 50.5464 68.4303C50.9471 68.8021 51.1474 69.3282 51.1474 70.0088V73.1091H50.0715V70.3018C50.0715 69.8418 49.9584 69.4858 49.7322 69.2337C49.506 68.9754 49.2023 68.8462 48.821 68.8462C48.4203 68.8462 48.0907 68.9848 47.8322 69.2621C47.5802 69.533 47.4542 69.8859 47.4542 70.3207V73.1091Z" fill="#0047CC"/>
<path d="M54.9083 73.2225C54.094 73.2225 53.4316 72.9736 52.9211 72.4758C52.4041 71.9717 52.1456 71.3352 52.1456 70.5665C52.1456 69.7914 52.4074 69.1518 52.9308 68.6477C53.4607 68.1436 54.1328 67.8915 54.9471 67.8915C55.4705 67.8915 55.9487 68.0144 56.3817 68.2601C56.8212 68.5059 57.1443 68.8367 57.3511 69.2526L56.469 69.7347C56.3074 69.4637 56.0909 69.2495 55.8195 69.0919C55.5545 68.9281 55.267 68.8462 54.9568 68.8462C54.4592 68.8462 54.0456 69.01 53.716 69.3377C53.3864 69.6717 53.2216 70.0813 53.2216 70.5665C53.2216 71.0391 53.3832 71.4424 53.7063 71.7763C54.023 72.104 54.4268 72.2678 54.918 72.2678C55.2282 72.2678 55.5254 72.1859 55.8098 72.0221C56.0941 71.8583 56.3042 71.6503 56.4399 71.3983L57.322 71.8992C57.1087 72.2962 56.7824 72.6176 56.3429 72.8633C55.91 73.1028 55.4317 73.2225 54.9083 73.2225Z" fill="#0047CC"/>
<path d="M63.183 70.4625C63.183 70.6263 63.1701 70.7933 63.1442 70.9635H59.0633C59.1408 71.373 59.325 71.6976 59.6158 71.937C59.9131 72.1765 60.3073 72.2962 60.7984 72.2962C61.0957 72.2962 61.4059 72.2458 61.729 72.145C62.0586 72.0441 62.3397 71.9118 62.5723 71.748L63.0182 72.5136C62.3655 72.9862 61.6127 73.2225 60.7596 73.2225C59.842 73.2225 59.144 72.961 58.6658 72.438C58.1941 71.915 57.9582 71.2848 57.9582 70.5476C57.9582 69.7788 58.2038 69.1455 58.6949 68.6477C59.1925 68.1436 59.8355 67.8915 60.6239 67.8915C61.38 67.8915 61.9939 68.1215 62.4657 68.5815C62.9439 69.0478 63.183 69.6748 63.183 70.4625ZM60.6239 68.7895C60.2232 68.7895 59.8807 68.9123 59.5964 69.1581C59.3185 69.3976 59.1408 69.7158 59.0633 70.1128H62.107C62.0618 69.7158 61.9002 69.3976 61.6223 69.1581C61.3509 68.9123 61.0181 68.7895 60.6239 68.7895Z" fill="#0047CC"/>
<path d="M70.7467 69.2904C71.1732 69.4038 71.506 69.6244 71.7451 69.9521C71.9842 70.2798 72.1038 70.661 72.1038 71.0958C72.1038 71.6377 71.9034 72.1103 71.5028 72.5136C71.1021 72.9106 70.556 73.1091 69.8646 73.1091H66.8111V66.124H69.7289C70.3557 66.124 70.8436 66.2973 71.1926 66.6438C71.548 66.9904 71.7257 67.3968 71.7257 67.8632C71.7257 68.1782 71.6353 68.4681 71.4543 68.7327C71.2798 68.9974 71.0439 69.1833 70.7467 69.2904ZM69.5641 67.1164H67.9162V68.9218H69.5253C69.8484 68.9218 70.1069 68.8304 70.3008 68.6477C70.4947 68.4649 70.5916 68.2444 70.5916 67.986C70.5916 67.7403 70.4979 67.5355 70.3105 67.3717C70.1231 67.2015 69.8743 67.1164 69.5641 67.1164ZM67.9162 72.1166H69.6707C70.052 72.1166 70.3589 72.0095 70.5916 71.7952C70.8242 71.581 70.9406 71.3195 70.9406 71.0107C70.9406 70.6893 70.8242 70.4215 70.5916 70.2073C70.3654 69.993 70.0488 69.8859 69.6416 69.8859H67.9162V72.1166Z" fill="#0047CC"/>
<path d="M77.2775 68.7233V68.0144H78.3051V73.1091H77.2775V72.4096C76.8058 72.9579 76.2113 73.232 75.4939 73.232C74.7378 73.232 74.1142 72.9736 73.6231 72.4569C73.132 71.9402 72.8864 71.2974 72.8864 70.5286C72.8864 69.7662 73.132 69.136 73.6231 68.6382C74.1142 68.1404 74.7378 67.8915 75.4939 67.8915C76.2113 67.8915 76.8058 68.1688 77.2775 68.7233ZM75.6393 72.2773C76.124 72.2773 76.5279 72.1103 76.851 71.7763C77.1677 71.4487 77.326 71.0422 77.326 70.557C77.326 70.0781 77.1677 69.6748 76.851 69.3471C76.5279 69.0132 76.124 68.8462 75.6393 68.8462C75.1417 68.8462 74.7378 69.0132 74.4276 69.3471C74.1175 69.6748 73.9624 70.0813 73.9624 70.5665C73.9624 71.0517 74.1175 71.4581 74.4276 71.7858C74.7378 72.1135 75.1417 72.2773 75.6393 72.2773Z" fill="#0047CC"/>
<path d="M80.7473 73.1091H79.681V68.0144H80.7279V68.7327C80.883 68.4681 81.106 68.2601 81.3968 68.1089C81.6876 67.9577 82.0172 67.8821 82.3855 67.8821C82.9607 67.8821 83.4453 68.0648 83.8395 68.4303C84.2402 68.8021 84.4405 69.3282 84.4405 70.0088V73.1091H83.3646V70.3018C83.3646 69.8418 83.2515 69.4858 83.0253 69.2337C82.7991 68.9754 82.4954 68.8462 82.1141 68.8462C81.7134 68.8462 81.3838 68.9848 81.1254 69.2621C80.8733 69.533 80.7473 69.8859 80.7473 70.3207V73.1091Z" fill="#0047CC"/>
<path d="M90.5278 73.1091H89.1514L87.2708 70.7933L86.8152 71.1998V73.1091H85.7489V65.9444H86.8152V69.9804L89.0157 68.0144H90.4212L88.0172 70.1317L90.5278 73.1091Z" fill="#0047CC"/>
</svg>
